<mxfile host="www.draw.io" modified="2020-02-15T19:04:06.579Z" agent="Mozilla/5.0 (Windows NT 10.0; Win64; x64; rv:68.0) Gecko/20100101 Firefox/68.0" etag="e7XvvkRiRCY55dBm6NjR" version="12.7.0" type="github">
  <diagram id="eVp9j-pNsx_iiZz8hf3B" name="Page-1">
    <mxGraphModel dx="1422" dy="911" grid="1" gridSize="10" guides="1" tooltips="1" connect="1" arrows="1" fold="1" page="1" pageScale="1" pageWidth="1100" pageHeight="850" math="0" shadow="0">
      <root>
        <mxCell id="0"/>
        <mxCell id="1" parent="0"/>
        <mxCell id="Enw9lLtY8jkO8zs9E8e_-57" value="" style="rounded=0;whiteSpace=wrap;html=1;" vertex="1" parent="1">
          <mxGeometry x="10" y="520" width="280" height="60" as="geometry"/>
        </mxCell>
        <mxCell id="Enw9lLtY8jkO8zs9E8e_-46" value="" style="rounded=0;whiteSpace=wrap;html=1;" vertex="1" parent="1">
          <mxGeometry x="10" y="420" width="270" height="50" as="geometry"/>
        </mxCell>
        <mxCell id="Enw9lLtY8jkO8zs9E8e_-19" value="" style="rounded=0;whiteSpace=wrap;html=1;" vertex="1" parent="1">
          <mxGeometry y="230" width="280" height="50" as="geometry"/>
        </mxCell>
        <mxCell id="Enw9lLtY8jkO8zs9E8e_-1" value="ACTOR" style="rounded=0;whiteSpace=wrap;html=1;" vertex="1" parent="1">
          <mxGeometry x="20" y="20" width="120" height="60" as="geometry"/>
        </mxCell>
        <mxCell id="Enw9lLtY8jkO8zs9E8e_-2" value="" style="endArrow=none;dashed=1;html=1;" edge="1" parent="1">
          <mxGeometry width="50" height="50" relative="1" as="geometry">
            <mxPoint x="80" y="760" as="sourcePoint"/>
            <mxPoint x="80" y="80" as="targetPoint"/>
          </mxGeometry>
        </mxCell>
        <mxCell id="Enw9lLtY8jkO8zs9E8e_-3" value="UI" style="rounded=0;whiteSpace=wrap;html=1;" vertex="1" parent="1">
          <mxGeometry x="200" y="22" width="120" height="60" as="geometry"/>
        </mxCell>
        <mxCell id="Enw9lLtY8jkO8zs9E8e_-4" value="" style="endArrow=none;dashed=1;html=1;" edge="1" parent="1" source="Enw9lLtY8jkO8zs9E8e_-9">
          <mxGeometry width="50" height="50" relative="1" as="geometry">
            <mxPoint x="260" y="750" as="sourcePoint"/>
            <mxPoint x="260" y="82" as="targetPoint"/>
          </mxGeometry>
        </mxCell>
        <mxCell id="Enw9lLtY8jkO8zs9E8e_-5" value="Warehouse" style="rounded=0;whiteSpace=wrap;html=1;" vertex="1" parent="1">
          <mxGeometry x="380" y="22" width="120" height="60" as="geometry"/>
        </mxCell>
        <mxCell id="Enw9lLtY8jkO8zs9E8e_-6" value="" style="endArrow=none;dashed=1;html=1;entryX=0.5;entryY=1;entryDx=0;entryDy=0;" edge="1" parent="1" source="Enw9lLtY8jkO8zs9E8e_-14" target="Enw9lLtY8jkO8zs9E8e_-5">
          <mxGeometry width="50" height="50" relative="1" as="geometry">
            <mxPoint x="440" y="750" as="sourcePoint"/>
            <mxPoint x="440" y="112" as="targetPoint"/>
          </mxGeometry>
        </mxCell>
        <mxCell id="Enw9lLtY8jkO8zs9E8e_-8" value="" style="rounded=0;whiteSpace=wrap;html=1;" vertex="1" parent="1">
          <mxGeometry x="70" y="100" width="20" height="650" as="geometry"/>
        </mxCell>
        <mxCell id="Enw9lLtY8jkO8zs9E8e_-9" value="" style="rounded=0;whiteSpace=wrap;html=1;" vertex="1" parent="1">
          <mxGeometry x="250" y="100" width="20" height="680" as="geometry"/>
        </mxCell>
        <mxCell id="Enw9lLtY8jkO8zs9E8e_-10" value="" style="endArrow=none;dashed=1;html=1;" edge="1" parent="1" target="Enw9lLtY8jkO8zs9E8e_-9">
          <mxGeometry width="50" height="50" relative="1" as="geometry">
            <mxPoint x="260" y="800" as="sourcePoint"/>
            <mxPoint x="260" y="82" as="targetPoint"/>
          </mxGeometry>
        </mxCell>
        <mxCell id="Enw9lLtY8jkO8zs9E8e_-11" value="add item to cart" style="endArrow=classic;html=1;entryX=-0.2;entryY=0.017;entryDx=0;entryDy=0;entryPerimeter=0;" edge="1" parent="1" target="Enw9lLtY8jkO8zs9E8e_-9">
          <mxGeometry width="50" height="50" relative="1" as="geometry">
            <mxPoint x="90" y="110" as="sourcePoint"/>
            <mxPoint x="140" y="60" as="targetPoint"/>
          </mxGeometry>
        </mxCell>
        <mxCell id="Enw9lLtY8jkO8zs9E8e_-12" value="Ask for clientID" style="endArrow=classic;html=1;" edge="1" parent="1">
          <mxGeometry width="50" height="50" relative="1" as="geometry">
            <mxPoint x="250" y="140" as="sourcePoint"/>
            <mxPoint x="90" y="139" as="targetPoint"/>
          </mxGeometry>
        </mxCell>
        <mxCell id="Enw9lLtY8jkO8zs9E8e_-13" value="Provide clientID" style="endArrow=classic;html=1;entryX=-0.1;entryY=0.111;entryDx=0;entryDy=0;entryPerimeter=0;dashed=1;" edge="1" parent="1" target="Enw9lLtY8jkO8zs9E8e_-9">
          <mxGeometry width="50" height="50" relative="1" as="geometry">
            <mxPoint x="90" y="170" as="sourcePoint"/>
            <mxPoint x="140" y="120" as="targetPoint"/>
          </mxGeometry>
        </mxCell>
        <mxCell id="Enw9lLtY8jkO8zs9E8e_-14" value="" style="rounded=0;whiteSpace=wrap;html=1;" vertex="1" parent="1">
          <mxGeometry x="430" y="180" width="20" height="40" as="geometry"/>
        </mxCell>
        <mxCell id="Enw9lLtY8jkO8zs9E8e_-15" value="" style="endArrow=none;dashed=1;html=1;entryX=0.5;entryY=1;entryDx=0;entryDy=0;" edge="1" parent="1" source="Enw9lLtY8jkO8zs9E8e_-36" target="Enw9lLtY8jkO8zs9E8e_-14">
          <mxGeometry width="50" height="50" relative="1" as="geometry">
            <mxPoint x="440" y="750" as="sourcePoint"/>
            <mxPoint x="440" y="82" as="targetPoint"/>
          </mxGeometry>
        </mxCell>
        <mxCell id="Enw9lLtY8jkO8zs9E8e_-16" value="" style="endArrow=classic;html=1;dashed=1;entryX=1.05;entryY=0.17;entryDx=0;entryDy=0;entryPerimeter=0;" edge="1" parent="1" target="Enw9lLtY8jkO8zs9E8e_-9">
          <mxGeometry width="50" height="50" relative="1" as="geometry">
            <mxPoint x="430" y="210" as="sourcePoint"/>
            <mxPoint x="480" y="160" as="targetPoint"/>
          </mxGeometry>
        </mxCell>
        <mxCell id="Enw9lLtY8jkO8zs9E8e_-18" value="if null, then invalid" style="text;html=1;align=center;verticalAlign=middle;resizable=0;points=[];labelBackgroundColor=#ffffff;" vertex="1" connectable="0" parent="Enw9lLtY8jkO8zs9E8e_-16">
          <mxGeometry x="0.1574" y="-1" relative="1" as="geometry">
            <mxPoint x="11.99" as="offset"/>
          </mxGeometry>
        </mxCell>
        <mxCell id="Enw9lLtY8jkO8zs9E8e_-17" value="verifyClient(id)" style="endArrow=classic;html=1;entryX=0;entryY=0;entryDx=0;entryDy=0;" edge="1" parent="1" target="Enw9lLtY8jkO8zs9E8e_-14">
          <mxGeometry width="50" height="50" relative="1" as="geometry">
            <mxPoint x="270" y="180" as="sourcePoint"/>
            <mxPoint x="320" y="130" as="targetPoint"/>
          </mxGeometry>
        </mxCell>
        <mxCell id="Enw9lLtY8jkO8zs9E8e_-20" value="opt" style="rounded=0;whiteSpace=wrap;html=1;" vertex="1" parent="1">
          <mxGeometry y="230" width="40" height="20" as="geometry"/>
        </mxCell>
        <mxCell id="Enw9lLtY8jkO8zs9E8e_-21" value="id invalid" style="text;html=1;align=center;verticalAlign=middle;resizable=0;points=[];autosize=1;" vertex="1" parent="1">
          <mxGeometry y="250" width="60" height="20" as="geometry"/>
        </mxCell>
        <mxCell id="Enw9lLtY8jkO8zs9E8e_-22" value="" style="endArrow=classic;html=1;" edge="1" parent="1">
          <mxGeometry width="50" height="50" relative="1" as="geometry">
            <mxPoint x="250" y="250" as="sourcePoint"/>
            <mxPoint x="89" y="250" as="targetPoint"/>
          </mxGeometry>
        </mxCell>
        <mxCell id="Enw9lLtY8jkO8zs9E8e_-23" value="&lt;div&gt;id is invalid,&lt;/div&gt;&lt;div&gt; ask to re-enter&lt;/div&gt;" style="text;html=1;align=center;verticalAlign=middle;resizable=0;points=[];labelBackgroundColor=#ffffff;" vertex="1" connectable="0" parent="Enw9lLtY8jkO8zs9E8e_-22">
          <mxGeometry x="0.7391" y="3" relative="1" as="geometry">
            <mxPoint x="50" y="-3" as="offset"/>
          </mxGeometry>
        </mxCell>
        <mxCell id="Enw9lLtY8jkO8zs9E8e_-24" value="" style="endArrow=classic;html=1;entryX=0;entryY=0.122;entryDx=0;entryDy=0;entryPerimeter=0;dashed=1;" edge="1" parent="1" target="Enw9lLtY8jkO8zs9E8e_-9">
          <mxGeometry width="50" height="50" relative="1" as="geometry">
            <mxPoint x="90" y="270" as="sourcePoint"/>
            <mxPoint x="140" y="220" as="targetPoint"/>
          </mxGeometry>
        </mxCell>
        <mxCell id="Enw9lLtY8jkO8zs9E8e_-25" value="" style="endArrow=classic;html=1;dashed=1;exitX=1.15;exitY=0.351;exitDx=0;exitDy=0;exitPerimeter=0;" edge="1" parent="1" source="Enw9lLtY8jkO8zs9E8e_-8">
          <mxGeometry width="50" height="50" relative="1" as="geometry">
            <mxPoint x="90" y="340" as="sourcePoint"/>
            <mxPoint x="249" y="328" as="targetPoint"/>
          </mxGeometry>
        </mxCell>
        <mxCell id="Enw9lLtY8jkO8zs9E8e_-27" value="productID" style="text;html=1;align=center;verticalAlign=middle;resizable=0;points=[];labelBackgroundColor=#ffffff;" vertex="1" connectable="0" parent="Enw9lLtY8jkO8zs9E8e_-25">
          <mxGeometry x="-0.2325" y="-3" relative="1" as="geometry">
            <mxPoint as="offset"/>
          </mxGeometry>
        </mxCell>
        <mxCell id="Enw9lLtY8jkO8zs9E8e_-26" value="ask for productID" style="endArrow=classic;html=1;exitX=0;exitY=0.325;exitDx=0;exitDy=0;exitPerimeter=0;entryX=1.1;entryY=0.318;entryDx=0;entryDy=0;entryPerimeter=0;" edge="1" parent="1" source="Enw9lLtY8jkO8zs9E8e_-9" target="Enw9lLtY8jkO8zs9E8e_-8">
          <mxGeometry x="0.0127" y="-1" width="50" height="50" relative="1" as="geometry">
            <mxPoint x="170" y="380" as="sourcePoint"/>
            <mxPoint x="220" y="330" as="targetPoint"/>
            <mxPoint as="offset"/>
          </mxGeometry>
        </mxCell>
        <mxCell id="Enw9lLtY8jkO8zs9E8e_-28" value="verifyProduct(id)" style="endArrow=classic;html=1;" edge="1" parent="1">
          <mxGeometry width="50" height="50" relative="1" as="geometry">
            <mxPoint x="270" y="340" as="sourcePoint"/>
            <mxPoint x="429" y="338" as="targetPoint"/>
          </mxGeometry>
        </mxCell>
        <mxCell id="Enw9lLtY8jkO8zs9E8e_-29" value="ClientList" style="rounded=0;whiteSpace=wrap;html=1;" vertex="1" parent="1">
          <mxGeometry x="530" y="20" width="120" height="58" as="geometry"/>
        </mxCell>
        <mxCell id="Enw9lLtY8jkO8zs9E8e_-30" value="" style="endArrow=none;dashed=1;html=1;" edge="1" parent="1" source="Enw9lLtY8jkO8zs9E8e_-31">
          <mxGeometry width="50" height="50" relative="1" as="geometry">
            <mxPoint x="590" y="760" as="sourcePoint"/>
            <mxPoint x="590" y="78" as="targetPoint"/>
          </mxGeometry>
        </mxCell>
        <mxCell id="Enw9lLtY8jkO8zs9E8e_-31" value="" style="rounded=0;whiteSpace=wrap;html=1;" vertex="1" parent="1">
          <mxGeometry x="580" y="185" width="20" height="30" as="geometry"/>
        </mxCell>
        <mxCell id="Enw9lLtY8jkO8zs9E8e_-32" value="" style="endArrow=none;dashed=1;html=1;" edge="1" parent="1" source="Enw9lLtY8jkO8zs9E8e_-67" target="Enw9lLtY8jkO8zs9E8e_-31">
          <mxGeometry width="50" height="50" relative="1" as="geometry">
            <mxPoint x="590" y="760" as="sourcePoint"/>
            <mxPoint x="590" y="78" as="targetPoint"/>
          </mxGeometry>
        </mxCell>
        <mxCell id="Enw9lLtY8jkO8zs9E8e_-33" value="findClient(id)" style="endArrow=classic;html=1;entryX=0;entryY=0.25;entryDx=0;entryDy=0;" edge="1" parent="1">
          <mxGeometry width="50" height="50" relative="1" as="geometry">
            <mxPoint x="450" y="190" as="sourcePoint"/>
            <mxPoint x="580" y="192.5" as="targetPoint"/>
          </mxGeometry>
        </mxCell>
        <mxCell id="Enw9lLtY8jkO8zs9E8e_-34" value="client" style="endArrow=classic;html=1;entryX=1;entryY=0.75;entryDx=0;entryDy=0;dashed=1;" edge="1" parent="1" target="Enw9lLtY8jkO8zs9E8e_-14">
          <mxGeometry width="50" height="50" relative="1" as="geometry">
            <mxPoint x="580" y="210" as="sourcePoint"/>
            <mxPoint x="630" y="160" as="targetPoint"/>
          </mxGeometry>
        </mxCell>
        <mxCell id="Enw9lLtY8jkO8zs9E8e_-36" value="" style="rounded=0;whiteSpace=wrap;html=1;" vertex="1" parent="1">
          <mxGeometry x="430" y="320" width="20" height="130" as="geometry"/>
        </mxCell>
        <mxCell id="Enw9lLtY8jkO8zs9E8e_-37" value="" style="endArrow=none;dashed=1;html=1;entryX=0.5;entryY=1;entryDx=0;entryDy=0;" edge="1" parent="1" source="Enw9lLtY8jkO8zs9E8e_-52" target="Enw9lLtY8jkO8zs9E8e_-36">
          <mxGeometry width="50" height="50" relative="1" as="geometry">
            <mxPoint x="440" y="750" as="sourcePoint"/>
            <mxPoint x="440" y="220" as="targetPoint"/>
          </mxGeometry>
        </mxCell>
        <mxCell id="Enw9lLtY8jkO8zs9E8e_-38" value="ProductList" style="rounded=0;whiteSpace=wrap;html=1;" vertex="1" parent="1">
          <mxGeometry x="670" y="22" width="120" height="60" as="geometry"/>
        </mxCell>
        <mxCell id="Enw9lLtY8jkO8zs9E8e_-39" value="" style="endArrow=none;dashed=1;html=1;" edge="1" parent="1" source="Enw9lLtY8jkO8zs9E8e_-72">
          <mxGeometry width="50" height="50" relative="1" as="geometry">
            <mxPoint x="730" y="760" as="sourcePoint"/>
            <mxPoint x="730" y="82" as="targetPoint"/>
          </mxGeometry>
        </mxCell>
        <mxCell id="Enw9lLtY8jkO8zs9E8e_-40" value="" style="rounded=0;whiteSpace=wrap;html=1;" vertex="1" parent="1">
          <mxGeometry x="720" y="350" width="20" height="60" as="geometry"/>
        </mxCell>
        <mxCell id="Enw9lLtY8jkO8zs9E8e_-41" value="product" style="endArrow=classic;html=1;dashed=1;entryX=1.15;entryY=0.562;entryDx=0;entryDy=0;entryPerimeter=0;" edge="1" parent="1" target="Enw9lLtY8jkO8zs9E8e_-36">
          <mxGeometry width="50" height="50" relative="1" as="geometry">
            <mxPoint x="720" y="390" as="sourcePoint"/>
            <mxPoint x="770" y="340" as="targetPoint"/>
          </mxGeometry>
        </mxCell>
        <mxCell id="Enw9lLtY8jkO8zs9E8e_-42" value="" style="endArrow=classic;html=1;entryX=-0.1;entryY=0.15;entryDx=0;entryDy=0;entryPerimeter=0;" edge="1" parent="1" target="Enw9lLtY8jkO8zs9E8e_-40">
          <mxGeometry width="50" height="50" relative="1" as="geometry">
            <mxPoint x="450" y="360" as="sourcePoint"/>
            <mxPoint x="670" y="360" as="targetPoint"/>
          </mxGeometry>
        </mxCell>
        <mxCell id="Enw9lLtY8jkO8zs9E8e_-43" value="findProduct(id)" style="text;html=1;align=center;verticalAlign=middle;resizable=0;points=[];labelBackgroundColor=#ffffff;" vertex="1" connectable="0" parent="Enw9lLtY8jkO8zs9E8e_-42">
          <mxGeometry x="-0.1344" y="-1" relative="1" as="geometry">
            <mxPoint as="offset"/>
          </mxGeometry>
        </mxCell>
        <mxCell id="Enw9lLtY8jkO8zs9E8e_-44" value="" style="endArrow=classic;html=1;dashed=1;" edge="1" parent="1">
          <mxGeometry width="50" height="50" relative="1" as="geometry">
            <mxPoint x="430" y="410" as="sourcePoint"/>
            <mxPoint x="272" y="410" as="targetPoint"/>
          </mxGeometry>
        </mxCell>
        <mxCell id="Enw9lLtY8jkO8zs9E8e_-45" value="if null, then invalid" style="text;html=1;align=center;verticalAlign=middle;resizable=0;points=[];labelBackgroundColor=#ffffff;" vertex="1" connectable="0" parent="Enw9lLtY8jkO8zs9E8e_-44">
          <mxGeometry x="0.3415" y="-1" relative="1" as="geometry">
            <mxPoint x="26" y="-0.99" as="offset"/>
          </mxGeometry>
        </mxCell>
        <mxCell id="Enw9lLtY8jkO8zs9E8e_-47" value="opt" style="rounded=0;whiteSpace=wrap;html=1;" vertex="1" parent="1">
          <mxGeometry x="10" y="420" width="60" height="30" as="geometry"/>
        </mxCell>
        <mxCell id="Enw9lLtY8jkO8zs9E8e_-48" value="id invalid" style="text;html=1;align=center;verticalAlign=middle;resizable=0;points=[];autosize=1;" vertex="1" parent="1">
          <mxGeometry x="10" y="450" width="60" height="20" as="geometry"/>
        </mxCell>
        <mxCell id="Enw9lLtY8jkO8zs9E8e_-49" value="" style="endArrow=classic;html=1;dashed=1;entryX=-0.15;entryY=0.356;entryDx=0;entryDy=0;entryPerimeter=0;" edge="1" parent="1" target="Enw9lLtY8jkO8zs9E8e_-9">
          <mxGeometry width="50" height="50" relative="1" as="geometry">
            <mxPoint x="90" y="460" as="sourcePoint"/>
            <mxPoint x="140" y="410" as="targetPoint"/>
          </mxGeometry>
        </mxCell>
        <mxCell id="Enw9lLtY8jkO8zs9E8e_-51" value="&lt;div&gt;id invalid,&lt;/div&gt;&lt;div&gt;ask to re-enter&lt;br&gt;&lt;/div&gt;" style="endArrow=classic;html=1;entryX=1.15;entryY=0.512;entryDx=0;entryDy=0;entryPerimeter=0;" edge="1" parent="1" target="Enw9lLtY8jkO8zs9E8e_-8">
          <mxGeometry x="-0.1079" y="2" width="50" height="50" relative="1" as="geometry">
            <mxPoint x="250" y="430" as="sourcePoint"/>
            <mxPoint x="300" y="380" as="targetPoint"/>
            <Array as="points">
              <mxPoint x="180" y="433"/>
            </Array>
            <mxPoint as="offset"/>
          </mxGeometry>
        </mxCell>
        <mxCell id="Enw9lLtY8jkO8zs9E8e_-52" value="" style="rounded=0;whiteSpace=wrap;html=1;" vertex="1" parent="1">
          <mxGeometry x="430" y="580" width="20" height="200" as="geometry"/>
        </mxCell>
        <mxCell id="Enw9lLtY8jkO8zs9E8e_-53" value="" style="endArrow=none;dashed=1;html=1;entryX=0.5;entryY=1;entryDx=0;entryDy=0;" edge="1" parent="1" target="Enw9lLtY8jkO8zs9E8e_-52">
          <mxGeometry width="50" height="50" relative="1" as="geometry">
            <mxPoint x="440" y="840" as="sourcePoint"/>
            <mxPoint x="440" y="450" as="targetPoint"/>
          </mxGeometry>
        </mxCell>
        <mxCell id="Enw9lLtY8jkO8zs9E8e_-54" value="" style="endArrow=classic;html=1;entryX=1.15;entryY=0.6;entryDx=0;entryDy=0;entryPerimeter=0;" edge="1" parent="1" target="Enw9lLtY8jkO8zs9E8e_-8">
          <mxGeometry width="50" height="50" relative="1" as="geometry">
            <mxPoint x="250" y="490" as="sourcePoint"/>
            <mxPoint x="300" y="440" as="targetPoint"/>
          </mxGeometry>
        </mxCell>
        <mxCell id="Enw9lLtY8jkO8zs9E8e_-55" value="Get product quantity" style="text;html=1;align=center;verticalAlign=middle;resizable=0;points=[];labelBackgroundColor=#ffffff;" vertex="1" connectable="0" parent="Enw9lLtY8jkO8zs9E8e_-54">
          <mxGeometry x="0.3121" y="3" relative="1" as="geometry">
            <mxPoint x="23" y="-3" as="offset"/>
          </mxGeometry>
        </mxCell>
        <mxCell id="Enw9lLtY8jkO8zs9E8e_-56" value="product quantity" style="endArrow=classic;html=1;dashed=1;" edge="1" parent="1">
          <mxGeometry width="50" height="50" relative="1" as="geometry">
            <mxPoint x="90" y="510" as="sourcePoint"/>
            <mxPoint x="247" y="510" as="targetPoint"/>
          </mxGeometry>
        </mxCell>
        <mxCell id="Enw9lLtY8jkO8zs9E8e_-58" value="opt" style="rounded=0;whiteSpace=wrap;html=1;" vertex="1" parent="1">
          <mxGeometry x="10" y="520" width="50" height="20" as="geometry"/>
        </mxCell>
        <mxCell id="Enw9lLtY8jkO8zs9E8e_-59" value="&lt;div&gt;quantity&lt;/div&gt;&lt;div&gt; &amp;lt;=0&lt;/div&gt;" style="text;html=1;align=center;verticalAlign=middle;resizable=0;points=[];autosize=1;" vertex="1" parent="1">
          <mxGeometry x="10" y="540" width="60" height="30" as="geometry"/>
        </mxCell>
        <mxCell id="Enw9lLtY8jkO8zs9E8e_-61" value="" style="endArrow=classic;html=1;dashed=1;exitX=1.25;exitY=0.725;exitDx=0;exitDy=0;exitPerimeter=0;" edge="1" parent="1" source="Enw9lLtY8jkO8zs9E8e_-8">
          <mxGeometry width="50" height="50" relative="1" as="geometry">
            <mxPoint x="90" y="560" as="sourcePoint"/>
            <mxPoint x="250" y="510" as="targetPoint"/>
          </mxGeometry>
        </mxCell>
        <mxCell id="Enw9lLtY8jkO8zs9E8e_-62" style="edgeStyle=orthogonalEdgeStyle;rounded=0;orthogonalLoop=1;jettySize=auto;html=1;exitX=0.5;exitY=1;exitDx=0;exitDy=0;dashed=1;" edge="1" parent="1" source="Enw9lLtY8jkO8zs9E8e_-57" target="Enw9lLtY8jkO8zs9E8e_-57">
          <mxGeometry relative="1" as="geometry"/>
        </mxCell>
        <mxCell id="Enw9lLtY8jkO8zs9E8e_-63" value="&lt;div&gt;quantiy invalid,&lt;/div&gt;&lt;div&gt;re-enter&lt;br&gt;&lt;/div&gt;" style="endArrow=classic;html=1;entryX=1.05;entryY=0.675;entryDx=0;entryDy=0;entryPerimeter=0;" edge="1" parent="1" target="Enw9lLtY8jkO8zs9E8e_-8">
          <mxGeometry x="-0.1194" y="-1" width="50" height="50" relative="1" as="geometry">
            <mxPoint x="250" y="540" as="sourcePoint"/>
            <mxPoint x="300" y="490" as="targetPoint"/>
            <mxPoint as="offset"/>
          </mxGeometry>
        </mxCell>
        <mxCell id="Enw9lLtY8jkO8zs9E8e_-64" value="" style="endArrow=classic;html=1;" edge="1" parent="1">
          <mxGeometry width="50" height="50" relative="1" as="geometry">
            <mxPoint x="270" y="600" as="sourcePoint"/>
            <mxPoint x="430" y="600" as="targetPoint"/>
          </mxGeometry>
        </mxCell>
        <mxCell id="Enw9lLtY8jkO8zs9E8e_-65" value="addToCart(cId, pId, quant)" style="text;html=1;align=center;verticalAlign=middle;resizable=0;points=[];labelBackgroundColor=#ffffff;" vertex="1" connectable="0" parent="Enw9lLtY8jkO8zs9E8e_-64">
          <mxGeometry x="-0.1876" relative="1" as="geometry">
            <mxPoint x="15.01" as="offset"/>
          </mxGeometry>
        </mxCell>
        <mxCell id="Enw9lLtY8jkO8zs9E8e_-66" value="" style="endArrow=classic;html=1;entryX=0;entryY=0.25;entryDx=0;entryDy=0;exitX=1.1;exitY=0.107;exitDx=0;exitDy=0;exitPerimeter=0;" edge="1" parent="1" source="Enw9lLtY8jkO8zs9E8e_-52" target="Enw9lLtY8jkO8zs9E8e_-67">
          <mxGeometry width="50" height="50" relative="1" as="geometry">
            <mxPoint x="450" y="623" as="sourcePoint"/>
            <mxPoint x="560" y="620" as="targetPoint"/>
          </mxGeometry>
        </mxCell>
        <mxCell id="Enw9lLtY8jkO8zs9E8e_-69" value="findClient(id)" style="text;html=1;align=center;verticalAlign=middle;resizable=0;points=[];labelBackgroundColor=#ffffff;" vertex="1" connectable="0" parent="Enw9lLtY8jkO8zs9E8e_-66">
          <mxGeometry x="-0.354" y="-2" relative="1" as="geometry">
            <mxPoint as="offset"/>
          </mxGeometry>
        </mxCell>
        <mxCell id="Enw9lLtY8jkO8zs9E8e_-67" value="" style="rounded=0;whiteSpace=wrap;html=1;" vertex="1" parent="1">
          <mxGeometry x="580" y="600" width="20" height="30" as="geometry"/>
        </mxCell>
        <mxCell id="Enw9lLtY8jkO8zs9E8e_-68" value="" style="endArrow=none;dashed=1;html=1;" edge="1" parent="1" target="Enw9lLtY8jkO8zs9E8e_-67">
          <mxGeometry width="50" height="50" relative="1" as="geometry">
            <mxPoint x="590" y="810" as="sourcePoint"/>
            <mxPoint x="590" y="215" as="targetPoint"/>
          </mxGeometry>
        </mxCell>
        <mxCell id="Enw9lLtY8jkO8zs9E8e_-70" value="" style="endArrow=classic;html=1;exitX=0;exitY=0.75;exitDx=0;exitDy=0;entryX=1.15;entryY=0.21;entryDx=0;entryDy=0;dashed=1;entryPerimeter=0;" edge="1" parent="1" source="Enw9lLtY8jkO8zs9E8e_-67" target="Enw9lLtY8jkO8zs9E8e_-52">
          <mxGeometry width="50" height="50" relative="1" as="geometry">
            <mxPoint x="540" y="620" as="sourcePoint"/>
            <mxPoint x="450" y="620" as="targetPoint"/>
          </mxGeometry>
        </mxCell>
        <mxCell id="Enw9lLtY8jkO8zs9E8e_-71" value="client" style="text;html=1;align=center;verticalAlign=middle;resizable=0;points=[];labelBackgroundColor=#ffffff;" vertex="1" connectable="0" parent="Enw9lLtY8jkO8zs9E8e_-70">
          <mxGeometry x="0.4313" y="2" relative="1" as="geometry">
            <mxPoint x="22.94" as="offset"/>
          </mxGeometry>
        </mxCell>
        <mxCell id="Enw9lLtY8jkO8zs9E8e_-72" value="" style="rounded=0;whiteSpace=wrap;html=1;" vertex="1" parent="1">
          <mxGeometry x="720" y="640" width="20" height="40" as="geometry"/>
        </mxCell>
        <mxCell id="Enw9lLtY8jkO8zs9E8e_-73" value="" style="endArrow=none;dashed=1;html=1;" edge="1" parent="1" target="Enw9lLtY8jkO8zs9E8e_-72">
          <mxGeometry width="50" height="50" relative="1" as="geometry">
            <mxPoint x="730" y="810" as="sourcePoint"/>
            <mxPoint x="730" y="82" as="targetPoint"/>
          </mxGeometry>
        </mxCell>
        <mxCell id="Enw9lLtY8jkO8zs9E8e_-74" value="product" style="endArrow=classic;html=1;dashed=1;exitX=0;exitY=0.75;exitDx=0;exitDy=0;" edge="1" parent="1" source="Enw9lLtY8jkO8zs9E8e_-72">
          <mxGeometry width="50" height="50" relative="1" as="geometry">
            <mxPoint x="720" y="659.5" as="sourcePoint"/>
            <mxPoint x="451" y="670" as="targetPoint"/>
          </mxGeometry>
        </mxCell>
        <mxCell id="Enw9lLtY8jkO8zs9E8e_-75" value="findProduct(id)" style="endArrow=classic;html=1;exitX=1.05;exitY=0.36;exitDx=0;exitDy=0;exitPerimeter=0;" edge="1" parent="1" source="Enw9lLtY8jkO8zs9E8e_-52">
          <mxGeometry width="50" height="50" relative="1" as="geometry">
            <mxPoint x="480" y="650" as="sourcePoint"/>
            <mxPoint x="720" y="650" as="targetPoint"/>
          </mxGeometry>
        </mxCell>
        <mxCell id="Enw9lLtY8jkO8zs9E8e_-78" value="Client" style="rounded=0;whiteSpace=wrap;html=1;" vertex="1" parent="1">
          <mxGeometry x="810" y="22" width="120" height="60" as="geometry"/>
        </mxCell>
        <mxCell id="Enw9lLtY8jkO8zs9E8e_-79" value="" style="endArrow=none;dashed=1;html=1;" edge="1" parent="1">
          <mxGeometry width="50" height="50" relative="1" as="geometry">
            <mxPoint x="870" y="800" as="sourcePoint"/>
            <mxPoint x="870" y="82" as="targetPoint"/>
          </mxGeometry>
        </mxCell>
        <mxCell id="Enw9lLtY8jkO8zs9E8e_-80" value="" style="rounded=0;whiteSpace=wrap;html=1;" vertex="1" parent="1">
          <mxGeometry x="860" y="680" width="20" height="80" as="geometry"/>
        </mxCell>
        <mxCell id="Enw9lLtY8jkO8zs9E8e_-84" value="" style="endArrow=classic;html=1;entryX=0.1;entryY=0.35;entryDx=0;entryDy=0;entryPerimeter=0;" edge="1" parent="1" target="Enw9lLtY8jkO8zs9E8e_-80">
          <mxGeometry width="50" height="50" relative="1" as="geometry">
            <mxPoint x="450" y="705" as="sourcePoint"/>
            <mxPoint x="500" y="655" as="targetPoint"/>
          </mxGeometry>
        </mxCell>
        <mxCell id="Enw9lLtY8jkO8zs9E8e_-85" value="addToCart(Product,quant)" style="text;html=1;align=center;verticalAlign=middle;resizable=0;points=[];labelBackgroundColor=#ffffff;" vertex="1" connectable="0" parent="Enw9lLtY8jkO8zs9E8e_-84">
          <mxGeometry x="0.0729" y="3" relative="1" as="geometry">
            <mxPoint as="offset"/>
          </mxGeometry>
        </mxCell>
        <mxCell id="Enw9lLtY8jkO8zs9E8e_-86" value="&lt;div&gt;ItemList:&lt;/div&gt;&lt;div&gt;shoppingCart&lt;br&gt;&lt;/div&gt;" style="rounded=0;whiteSpace=wrap;html=1;" vertex="1" parent="1">
          <mxGeometry x="960" y="22" width="120" height="60" as="geometry"/>
        </mxCell>
        <mxCell id="Enw9lLtY8jkO8zs9E8e_-87" value="" style="endArrow=none;dashed=1;html=1;" edge="1" parent="1" source="Enw9lLtY8jkO8zs9E8e_-88">
          <mxGeometry width="50" height="50" relative="1" as="geometry">
            <mxPoint x="1020" y="820" as="sourcePoint"/>
            <mxPoint x="1020" y="82" as="targetPoint"/>
          </mxGeometry>
        </mxCell>
        <mxCell id="Enw9lLtY8jkO8zs9E8e_-88" value="" style="rounded=0;whiteSpace=wrap;html=1;" vertex="1" parent="1">
          <mxGeometry x="1010" y="685" width="20" height="65" as="geometry"/>
        </mxCell>
        <mxCell id="Enw9lLtY8jkO8zs9E8e_-89" value="" style="endArrow=none;dashed=1;html=1;" edge="1" parent="1" target="Enw9lLtY8jkO8zs9E8e_-88">
          <mxGeometry width="50" height="50" relative="1" as="geometry">
            <mxPoint x="1020" y="820" as="sourcePoint"/>
            <mxPoint x="1020" y="82" as="targetPoint"/>
          </mxGeometry>
        </mxCell>
        <mxCell id="Enw9lLtY8jkO8zs9E8e_-90" value="add(Product, quant)" style="endArrow=classic;html=1;entryX=0.05;entryY=0.369;entryDx=0;entryDy=0;entryPerimeter=0;" edge="1" parent="1" target="Enw9lLtY8jkO8zs9E8e_-88">
          <mxGeometry width="50" height="50" relative="1" as="geometry">
            <mxPoint x="880" y="710" as="sourcePoint"/>
            <mxPoint x="930" y="660" as="targetPoint"/>
          </mxGeometry>
        </mxCell>
        <mxCell id="Enw9lLtY8jkO8zs9E8e_-94" value="new OrderedItem(prod,quant" style="rounded=0;whiteSpace=wrap;html=1;" vertex="1" parent="1">
          <mxGeometry x="1030" y="720" width="150" height="30" as="geometry"/>
        </mxCell>
        <mxCell id="Enw9lLtY8jkO8zs9E8e_-95" value="" style="endArrow=classic;html=1;" edge="1" parent="1">
          <mxGeometry width="50" height="50" relative="1" as="geometry">
            <mxPoint x="1100" y="750" as="sourcePoint"/>
            <mxPoint x="1030" y="750" as="targetPoint"/>
          </mxGeometry>
        </mxCell>
        <mxCell id="Enw9lLtY8jkO8zs9E8e_-96" value="" style="endArrow=classic;html=1;dashed=1;" edge="1" parent="1">
          <mxGeometry width="50" height="50" relative="1" as="geometry">
            <mxPoint x="430" y="720" as="sourcePoint"/>
            <mxPoint x="274" y="720" as="targetPoint"/>
          </mxGeometry>
        </mxCell>
        <mxCell id="Enw9lLtY8jkO8zs9E8e_-97" value="done" style="text;html=1;align=center;verticalAlign=middle;resizable=0;points=[];labelBackgroundColor=#ffffff;" vertex="1" connectable="0" parent="Enw9lLtY8jkO8zs9E8e_-96">
          <mxGeometry x="0.5256" relative="1" as="geometry">
            <mxPoint as="offset"/>
          </mxGeometry>
        </mxCell>
        <mxCell id="Enw9lLtY8jkO8zs9E8e_-98" value="done" style="endArrow=classic;html=1;dashed=1;exitX=0.1;exitY=0.946;exitDx=0;exitDy=0;exitPerimeter=0;" edge="1" parent="1" source="Enw9lLtY8jkO8zs9E8e_-9">
          <mxGeometry width="50" height="50" relative="1" as="geometry">
            <mxPoint x="210" y="750" as="sourcePoint"/>
            <mxPoint x="90" y="740" as="targetPoint"/>
          </mxGeometry>
        </mxCell>
      </root>
    </mxGraphModel>
  </diagram>
</mxfile>
